<?xml version="1.0" encoding="utf-8"?>
<!-- Generator: Adobe Illustrator 19.0.0, SVG Export Plug-In . SVG Version: 6.00 Build 0)  -->
<svg version="1.1" id="Calque_1" xmlns="http://www.w3.org/2000/svg" xmlns:xlink="http://www.w3.org/1999/xlink" x="0px" y="0px"
	 viewBox="0 0 834 109.9" style="enable-background:new 0 0 834 109.9;" xml:space="preserve">
<style type="text/css">
	.st0{fill:#FFFFFF;}
</style>
<g id="XMLID_29_">
	<g id="XMLID_41_">
		<polygon id="XMLID_28_" points="23.6,85.7 23.6,35.3 3.2,35.3 3.2,85.7 13.3,85.7 13.3,95.8 13.4,95.8 13.4,95.9 33.6,95.9 
			33.6,85.7 		"/>
		<rect id="XMLID_11_" x="44" y="35.3" width="20.3" height="60.6"/>
	</g>
	<polygon id="XMLID_10_" points="189.3,35.3 189.3,45.4 199.4,45.4 199.4,85.7 179.1,85.7 179.1,14.9 158.6,14.9 158.6,95.9 
		209.6,95.9 209.6,85.7 219.9,85.7 219.9,35.3 	"/>
	<polygon id="XMLID_9_" points="421.3,85.7 421.3,14.9 400.8,14.9 400.8,95.9 421.3,95.9 451.8,95.9 451.8,85.7 	"/>
	<polygon id="XMLID_8_" points="248.4,35 248.4,35.1 248.4,45.2 238.2,45.2 238.2,95.7 258.6,95.7 258.7,95.7 268.7,95.7 
		268.7,85.5 258.7,85.5 258.7,45.2 278.9,45.2 278.9,95.7 299.4,95.7 299.4,35.1 	"/>
	<polygon id="XMLID_7_" points="475.9,14.9 475.9,25.1 465.7,25.1 465.7,95.9 486.2,95.9 486.2,65.6 496.3,65.6 496.3,55.4 
		486.2,55.4 486.2,25.1 486.1,25.1 486.1,25.1 506.4,25.1 506.4,95.9 526.9,95.9 526.9,14.9 	"/>
	<path id="XMLID_34_" d="M608.2,55.4V24.9H598v-10l0,0h-51v80.9h51V85.7h10.2V65.4H598v-10H608.2z M567.5,85.7V25.1h20.3v30.3h-10.1
		v10.2h10.1v20.1H567.5z"/>
	<polygon id="XMLID_4_" points="370.5,45.2 370.5,45.2 370.5,45.2 370.5,35.1 370.5,35.1 370.5,35 319.5,35.1 319.5,95.7 340,95.7 
		340,45.2 360.3,45.2 360.3,45.2 360.3,95.7 380.8,95.7 380.8,45.2 	"/>
	<g id="XMLID_30_">
		<polygon id="XMLID_3_" points="105.9,45.2 105.9,35.1 85.4,35.1 85.4,95.7 105.9,95.7 105.9,55.4 116,55.4 116,45.2 		"/>
		<polygon id="XMLID_2_" points="116,35.1 116,45.2 126.1,45.2 126.1,55.4 146.5,55.4 146.5,35.1 		"/>
	</g>
</g>
<path id="XMLID_33_" d="M825.4,108.8h-168c-4.5,0-8.2-3.6-8.2-8.2V8.2c0-4.5,3.6-8.2,8.2-8.2h168c4.5,0,8.2,3.6,8.2,8.2v92.5
	C833.5,105.2,829.9,108.8,825.4,108.8z"/>
<g id="XMLID_35_">
	<path id="XMLID_36_" class="st0" d="M709.6,62.5l16-39.9h18.6L716,88.3h-13.3l-27.6-65.7h18.6L709.6,62.5z"/>
	<path id="XMLID_38_" class="st0" d="M803.1,88.3h-21.3L765.7,63h-0.2v25.3h-17.1V22.6h25.6c13,0,22.8,6.2,22.8,20.2
		c0,9.1-5.1,16.9-14.4,18.6L803.1,88.3z M765.5,52h1.7c5.6,0,11.9-1,11.9-8.2c0-7.2-6.3-8.2-11.9-8.2h-1.7V52z"/>
</g>
</svg>
