<?xml version="1.0" encoding="utf-8"?>
<!-- Generator: Adobe Illustrator 19.0.0, SVG Export Plug-In . SVG Version: 6.00 Build 0)  -->
<svg version="1.1" id="Calque_1" xmlns="http://www.w3.org/2000/svg" xmlns:xlink="http://www.w3.org/1999/xlink" x="0px" y="0px"
	 viewBox="491.9 -865.4 1708.4 1662.4" style="enable-background:new 491.9 -865.4 1708.4 1662.4;" xml:space="preserve">
<style type="text/css">
	.st0{fill:#FFFFFF;}
</style>
<circle id="XMLID_9_" class="st0" cx="620" cy="662" r="32.6"/>
<g id="XMLID_85_">
	<polygon id="XMLID_14_" class="st0" points="660.9,-859.4 660.9,-694.4 495.9,-694.4 495.9,-664.4 690.9,-664.4 690.9,-859.4 	"/>
	<path id="XMLID_82_" class="st0" d="M696.9-658.4h-207v-42h165v-165h42V-658.4z M666.9-688.4h-165v18h183v-183h-18V-688.4z"/>
</g>
<g id="XMLID_81_">
	<polygon id="XMLID_3_" class="st0" points="2194.3,793 2194.3,-857.4 751.9,-857.4 751.9,-827.4 2164.3,-827.4 2164.3,763 
		527.9,763 527.9,-603.4 497.9,-603.4 497.9,793 	"/>
	<path id="XMLID_5_" class="st0" d="M2200.3,799H491.9V-609.4h42V757h1624.4V-821.4H745.9v-42h1454.4V799z M757.9-851.4l0,18h1412.4
		V769H521.9V-597.4h-18V787h1684.4V-851.4H757.9L757.9-851.4z"/>
</g>
<rect id="XMLID_4_" x="568.4" y="-855" transform="matrix(-0.7071 0.7071 -0.7071 -0.7071 471.799 -1719.0538)" class="st0" width="47" height="186.3"/>
<g>
	<path class="st0" d="M1553.4,440.7v25.9h50.2V489h-50.2v41.3h-28.5v-112h83v22.4L1553.4,440.7L1553.4,440.7z"/>
	<path class="st0" d="M1725.6,483.2c0,29.6-19.7,48.3-51,48.3c-31.5,0-51.7-18.7-51.7-48.3v-65h28.5v65c0,15.2,9.8,24.5,23.4,24.5
		c13.4,0,22.6-9.3,22.6-24.5v-65h28.3L1725.6,483.2L1725.6,483.2z"/>
	<path class="st0" d="M1827.5,530.3l-51.5-69v69h-26.7v-112h25.1l51.7,69.1v-69.1h26.6v112H1827.5z"/>
	<path class="st0" d="M1921.6,486.3l-14.9,16.5v27.5h-28.5v-112h28.5v48.5l42.9-48.5h33l-41.6,46.4l44.3,65.6h-34.1L1921.6,486.3z"
		/>
	<path class="st0" d="M2058.7,530.3h-28.3v-35.4l-41.4-76.6h28.4l27,48.8l26.4-48.8h28.6l-40.6,75.8v36.2H2058.7z"/>
	<path class="st0" d="M1634.1,591.1v89.1h-28.5v-89.1h-33.4v-23h95.7v23H1634.1z"/>
	<path class="st0" d="M1791.2,624.1c0,32.6-25.9,57.4-60.6,57.4c-34.6,0-60.5-24.6-60.5-57.4c0-32.6,25.9-56.8,60.5-56.8
		C1765.3,567.3,1791.2,591.6,1791.2,624.1z M1699.2,624.3c0,18.9,14.6,33.4,31.7,33.4c17.3,0,31-14.6,31-33.4
		c0-18.9-13.8-33.1-31-33.1C1713.7,591.2,1699.2,605.4,1699.2,624.3z"/>
	<path class="st0" d="M1904.5,680.3l-20.8-77.4l-21.1,77.4h-29.4l-36.6-112h30.4l21.9,82.4l21.4-82.4h27.8l21.9,82.4l21.6-82.4h29.1
		l-37,112H1904.5z"/>
	<path class="st0" d="M2062.2,680.3l-51.5-69v69H1984v-112h25.1l51.7,69.1v-69.1h26.6v112H2062.2z"/>
</g>
</svg>
