<?xml version="1.0" encoding="utf-8"?>
<!-- Generator: Adobe Illustrator 19.0.0, SVG Export Plug-In . SVG Version: 6.00 Build 0)  -->
<svg version="1.1" id="Calque_1" xmlns="http://www.w3.org/2000/svg" xmlns:xlink="http://www.w3.org/1999/xlink" x="0px" y="0px"
	 viewBox="491.9 -783.4 2728.4 3817.1" style="enable-background:new 491.9 -783.4 2728.4 3817.1;" xml:space="preserve">
<style type="text/css">
	.st0{fill:#FFFFFF;}
</style>
<circle id="XMLID_9_" class="st0" cx="620" cy="2896.7" r="32.6"/>
<g id="XMLID_85_">
	<polygon id="XMLID_14_" class="st0" points="660.9,-779.4 660.9,-614.4 495.9,-614.4 495.9,-584.4 690.9,-584.4 690.9,-779.4 	"/>
	<path id="XMLID_82_" class="st0" d="M696.9-578.4h-207v-42h165v-165h42V-578.4z M666.9-608.4h-165v18h183v-183h-18V-608.4z"/>
</g>
<g id="XMLID_81_">
	<polygon id="XMLID_3_" class="st0" points="3214.3,3027.7 3214.3,-777.4 751.9,-777.4 751.9,-747.4 3184.3,-747.4 3184.3,2997.7 
		527.9,2997.7 527.9,-523.4 497.9,-523.4 497.9,3027.7 	"/>
	<path id="XMLID_5_" class="st0" d="M3220.3,3033.7H491.9V-529.4h42v3521.1h2644.4V-741.4H745.9v-42h2474.4V3033.7z M757.9-771.4
		l0,18h2432.4v3757.1H521.9V-517.4h-18v3539.1h2704.4V-771.4H757.9L757.9-771.4z"/>
</g>
<rect id="XMLID_4_" x="568.4" y="-775" transform="matrix(-0.7071 0.7071 -0.7071 -0.7071 528.3676 -1582.4854)" class="st0" width="47" height="186.3"/>
<g>
	<path class="st0" d="M2318.4,2820.8v23.6h56.8v23.8h-56.8v24h64.8v23.8h-95v-119h93.2v23.8H2318.4z M2342.8,2786.6h-22.4l18-28.6
		l26.5,9.4L2342.8,2786.6z"/>
	<path class="st0" d="M2436.8,2916l-46.2-119h32.3l30.4,87.5l30.4-87.5h31.1l-46.7,119H2436.8z"/>
	<path class="st0" d="M2647.1,2856.3c0,34.7-27.5,61-64.4,61c-36.7,0-64.3-26.2-64.3-61c0-34.7,27.5-60.3,64.3-60.3
		C2619.6,2796,2647.1,2821.8,2647.1,2856.3z M2549.4,2856.5c0,20.1,15.5,35.5,33.7,35.5c18.4,0,33-15.5,33-35.5
		c0-20.1-14.6-35.2-33-35.2C2564.7,2821.3,2549.4,2836.4,2549.4,2856.5z"/>
	<path class="st0" d="M2743.9,2890.7v25.3h-80.8v-119h30.3v93.7H2743.9z"/>
	<path class="st0" d="M2819.7,2916h-30.1v-37.6l-44-81.4h30.3l28.7,51.8l28-51.8h30.3l-43.2,80.6V2916z"/>
	<path class="st0" d="M2992.4,2856.3c0,34.7-27.5,61-64.4,61c-36.7,0-64.3-26.2-64.3-61c0-34.7,27.5-60.3,64.3-60.3
		C2964.9,2796,2992.4,2821.8,2992.4,2856.3z M2894.7,2856.5c0,20.1,15.5,35.5,33.7,35.5c18.4,0,33-15.5,33-35.5
		c0-20.1-14.6-35.2-33-35.2C2910,2821.3,2894.7,2836.4,2894.7,2856.5z"/>
	<path class="st0" d="M3091.5,2916l-54.7-73.3v73.3h-28.4v-119h26.7l54.9,73.4V2797h28.2v119H3091.5z"/>
</g>
</svg>
