<?xml version="1.0" encoding="utf-8"?>
<!-- Generator: Adobe Illustrator 19.0.0, SVG Export Plug-In . SVG Version: 6.00 Build 0)  -->
<svg version="1.1" id="Calque_1" xmlns="http://www.w3.org/2000/svg" xmlns:xlink="http://www.w3.org/1999/xlink" x="0px" y="0px"
	 viewBox="1031.9 -476 2438 1433" style="enable-background:new 1031.9 -476 2438 1433;" xml:space="preserve">
<style type="text/css">
	.st0{fill:#FFFFFF;}
</style>
<g id="XMLID_10_">
	<path id="XMLID_32_" class="st0" d="M2797.7,830.2V696.3h-31V662h73.7v168.2H2797.7z"/>
	<path id="XMLID_35_" class="st0" d="M2917.9,811.9c0,12-8.4,20.2-20.2,20.2c-11.8,0-19.9-8.2-19.9-20.2c0-11.8,8.2-19.9,19.9-19.9
		C2909.5,792,2917.9,800.2,2917.9,811.9z"/>
	<path id="XMLID_73_" class="st0" d="M2988.2,696v27.1h15.1c38.4,0,63.6,20.6,63.6,50.6c0,35.3-26.4,58.1-67,58.1
		c-22.1,0-47.3-8.4-64.8-20.9l17-32.4c12.5,13.4,27.6,20.6,42.7,20.6c16.6,0,26.2-8.2,26.2-22.6c0-13.2-9.6-20.9-26.2-20.9
		c-8.6,0-35.3,0.5-45.6,1.2V662h110.2v33.8h-71.2V696z"/>
	<path id="XMLID_75_" class="st0" d="M3205.2,697.2v9.4h29.3V734h-29.3v96.2h-41V734h-17.5v-27.4h17.5v-12
		c0-28.6,21.6-44.4,49.4-44.4c12.7,0,26.4,3.4,36.2,9.1l-14.6,29c-4.6-3.4-10.3-5.3-15.1-5.3
		C3211.7,682.8,3205.2,687.6,3205.2,697.2z"/>
	<path id="XMLID_77_" class="st0" d="M3340.8,823.2c-9.4,5.5-22.1,8.9-34.6,8.9c-25,0-43-14.2-43-41V734h-18v-27.2h18v-36h41.3v35.8
		h33.8V734h-33.8v50.6c0,10.1,4.3,14.4,12,14.2c4.3,0,9.8-1.7,16.1-4.3L3340.8,823.2z"/>
</g>
<circle id="XMLID_9_" class="st0" cx="1169" cy="822" r="32.6"/>
<g id="XMLID_31_">
	<polygon id="XMLID_14_" class="st0" points="1200.9,-472 1200.9,-307 1035.9,-307 1035.9,-277 1230.9,-277 1230.9,-472 	"/>
	<path id="XMLID_28_" class="st0" d="M1236.9-271h-207v-42h165v-165h42V-271z M1206.9-301h-165v18h183v-183h-18V-301z"/>
</g>
<g id="XMLID_27_">
	<polygon id="XMLID_5_" class="st0" points="3463.9,951 3463.9,-470 1291.9,-470 1291.9,-440 3433.9,-440 3433.9,921 1067.9,921 
		1067.9,-216 1037.9,-216 1037.9,951 	"/>
	<path id="XMLID_23_" class="st0" d="M3469.9,957h-2438V-222h42V915h2354V-434h-2142v-42h2184V957z M1297.9-464v18h2142V927h-2378
		V-210h-18V945h2414V-464H1297.9L1297.9-464z"/>
</g>
<rect id="XMLID_24_" x="1108.5" y="-467.6" transform="matrix(-0.7071 0.7071 -0.7071 -0.7071 1667.6307 -1439.6641)" class="st0" width="47" height="186.3"/>
</svg>
