<?xml version="1.0" encoding="utf-8"?>
<!-- Generator: Adobe Illustrator 19.0.0, SVG Export Plug-In . SVG Version: 6.00 Build 0)  -->
<svg version="1.1" id="Calque_1" xmlns="http://www.w3.org/2000/svg" xmlns:xlink="http://www.w3.org/1999/xlink" x="0px" y="0px"
	 viewBox="1649.9 -2568.9 2046.8 1543.8" style="enable-background:new 1649.9 -2568.9 2046.8 1543.8;" xml:space="preserve">
<style type="text/css">
	.st0{fill:#FFFFFF;}
</style>
<circle id="XMLID_9_" class="st0" cx="1778" cy="-1162.1" r="32.6"/>
<g id="XMLID_85_">
	<polygon id="XMLID_14_" class="st0" points="1818.9,-2564.9 1818.9,-2399.9 1653.9,-2399.9 1653.9,-2369.9 1848.9,-2369.9 
		1848.9,-2564.9 	"/>
	<path id="XMLID_82_" class="st0" d="M1854.9-2363.9h-207v-42h165v-165h42V-2363.9z M1824.9-2393.9h-165v18h183v-183h-18V-2393.9z"
		/>
</g>
<g id="XMLID_81_">
	<polygon id="XMLID_3_" class="st0" points="3690.7,-1031.1 3690.7,-2562.9 1909.9,-2562.9 1909.9,-2532.9 3660.7,-2532.9 
		3660.7,-1061.1 1685.9,-1061.1 1685.9,-2308.9 1655.9,-2308.9 1655.9,-1031.1 	"/>
	<path id="XMLID_5_" class="st0" d="M3696.7-1025.1H1649.9v-1289.8h42v1247.8h1962.8v-1459.8H1903.9v-42h1792.8L3696.7-1025.1
		L3696.7-1025.1z M1915.9-2556.9v18h1750.8v1483.8H1679.9v-1247.8h-18v1265.8h2022.8v-1519.8H1915.9L1915.9-2556.9z"/>
</g>
<rect id="XMLID_4_" x="1726.5" y="-2560.5" transform="matrix(0.7071 -0.7071 0.7071 0.7071 2257.2041 514.7591)" class="st0" width="47" height="186.3"/>
<g>
	<path class="st0" d="M2794.8-1238v23.6h56.8v23.8h-56.8v24h64.8v23.8h-95v-119h93.2v23.8L2794.8-1238L2794.8-1238z M2819.2-1272.2
		h-22.4l18-28.6l26.5,9.4L2819.2-1272.2z"/>
	<path class="st0" d="M2913.2-1142.8l-46.2-119h32.3l30.4,87.5l30.4-87.5h31.1l-46.7,119H2913.2z"/>
	<path class="st0" d="M3123.5-1202.5c0,34.7-27.5,61-64.4,61c-36.7,0-64.3-26.2-64.3-61c0-34.7,27.5-60.3,64.3-60.3
		C3096-1262.8,3123.5-1237,3123.5-1202.5z M3025.8-1202.3c0,20.1,15.5,35.5,33.7,35.5c18.4,0,33-15.5,33-35.5
		c0-20.1-14.6-35.2-33-35.2S3025.8-1222.4,3025.8-1202.3z"/>
	<path class="st0" d="M3220.3-1168.1v25.3h-80.8v-119h30.3v93.7H3220.3z"/>
	<path class="st0" d="M3296.1-1142.8H3266v-37.6l-44-81.4h30.3l28.7,51.8l28-51.8h30.3l-43.2,80.6V-1142.8z"/>
	<path class="st0" d="M3468.8-1202.5c0,34.7-27.5,61-64.4,61c-36.7,0-64.3-26.2-64.3-61c0-34.7,27.5-60.3,64.3-60.3
		C3441.3-1262.8,3468.8-1237,3468.8-1202.5z M3371.1-1202.3c0,20.1,15.5,35.5,33.7,35.5c18.4,0,33-15.5,33-35.5
		c0-20.1-14.6-35.2-33-35.2S3371.1-1222.4,3371.1-1202.3z"/>
	<path class="st0" d="M3567.9-1142.8l-54.7-73.3v73.3h-28.4v-119h26.7l54.9,73.4v-73.4h28.2v119H3567.9z"/>
</g>
</svg>
