<?xml version="1.0" encoding="utf-8"?>
<!-- Generator: Adobe Illustrator 19.0.0, SVG Export Plug-In . SVG Version: 6.00 Build 0)  -->
<svg version="1.1" id="Calque_1" xmlns="http://www.w3.org/2000/svg" xmlns:xlink="http://www.w3.org/1999/xlink" x="0px" y="0px"
	 viewBox="491.9 -783.4 2728.4 1862.2" style="enable-background:new 491.9 -783.4 2728.4 1862.2;" xml:space="preserve">
<style type="text/css">
	.st0{fill:#FFFFFF;}
</style>
<circle id="XMLID_9_" class="st0" cx="620" cy="941.8" r="32.6"/>
<g id="XMLID_85_">
	<polygon id="XMLID_14_" class="st0" points="660.9,-779.4 660.9,-614.4 495.9,-614.4 495.9,-584.4 690.9,-584.4 690.9,-779.4 	"/>
	<path id="XMLID_82_" class="st0" d="M696.9-578.4h-207v-42h165v-165h42V-578.4z M666.9-608.4h-165v18h183v-183h-18V-608.4z"/>
</g>
<g id="XMLID_81_">
	<polygon id="XMLID_3_" class="st0" points="3214.3,1072.8 3214.3,-777.4 751.9,-777.4 751.9,-747.4 3184.3,-747.4 3184.3,1042.8 
		527.9,1042.8 527.9,-523.4 497.9,-523.4 497.9,1072.8 	"/>
	<path id="XMLID_5_" class="st0" d="M3220.3,1078.8H491.9V-529.4h42v1566.2h2644.4V-741.4H745.9v-42h2474.4V1078.8z M757.9-771.4
		l0,18h2432.4v1802.2H521.9V-517.4h-18v1584.2h2704.4V-771.4H757.9L757.9-771.4z"/>
</g>
<rect id="XMLID_4_" x="568.4" y="-775" transform="matrix(-0.7071 0.7071 -0.7071 -0.7071 528.3676 -1582.4854)" class="st0" width="47" height="186.3"/>
<g>
	<path class="st0" d="M2118.1,959v-46.2h-49.3V959h-30.3V840h30.3v49h49.3v-49h30.3v119H2118.1z"/>
	<path class="st0" d="M2199.2,937.1l-8.7,21.9h-31.1l51.3-119h31.1l50.2,119h-32.3l-8.5-21.9H2199.2z M2225.4,870.1l-17.3,44h34.3
		L2225.4,870.1z"/>
	<path class="st0" d="M2403.5,859.1l-17.5,20.7c-7.8-9.5-19.4-15.5-29.9-15.5c-18.9,0-33.1,15-33.1,34.5c0,19.9,14.3,35,33.1,35
		c10,0,21.6-5.4,29.9-13.9l17.7,18.7c-12.8,13.1-31.6,21.8-49.1,21.8c-35.9,0-62.6-26.3-62.6-61.2c0-34.3,27.4-60.2,63.6-60.2
		C2373.3,839,2391.6,846.8,2403.5,859.1z"/>
	<path class="st0" d="M2463.5,912.3l-15.8,17.5V959h-30.3V840h30.3v51.5l45.6-51.5h35l-44.2,49.3l47.1,69.7H2495L2463.5,912.3z"/>
	<path class="st0" d="M2571.5,937.1l-8.7,21.9h-31.1l51.3-119h31.1l50.1,119H2632l-8.5-21.9H2571.5z M2597.7,870.1l-17.3,44h34.3
		L2597.7,870.1z"/>
	<path class="st0" d="M2777.4,898.5v46.4c-12.8,9-32.8,15.5-49.5,15.5c-36.2,0-63.6-26.2-63.6-60.9c0-34.5,28-60.5,65.6-60.5
		c17.7,0,36.4,6.8,48.6,17.7l-17,20.6c-8.7-8-20.7-12.9-31.8-12.9c-19.5,0-34.5,15.3-34.5,35.2c0,20.2,15.1,35.5,34.8,35.5
		c6.1,0,13.9-2.2,21.1-5.8v-30.8H2777.4z"/>
	<path class="st0" d="M2825.5,937.1l-8.7,21.9h-31.1l51.3-119h31.1l50.1,119H2886l-8.5-21.9H2825.5z M2851.7,870.1l-17.3,44h34.3
		L2851.7,870.1z"/>
	<path class="st0" d="M2971.7,864.3V959h-30.3v-94.7h-35.5v-24.5h101.7v24.5H2971.7z"/>
	<path class="st0" d="M3050.7,863.8v23.6h56.8v23.8h-56.8v24h64.8V959h-95V840h93.2v23.8H3050.7z"/>
</g>
</svg>
