<?xml version="1.0" encoding="utf-8"?>
<!-- Generator: Adobe Illustrator 19.0.0, SVG Export Plug-In . SVG Version: 6.00 Build 0)  -->
<svg version="1.1" id="Calque_1" xmlns="http://www.w3.org/2000/svg" xmlns:xlink="http://www.w3.org/1999/xlink" x="0px" y="0px"
	 viewBox="0 0 766.3 284" style="enable-background:new 0 0 766.3 284;" xml:space="preserve">
<style type="text/css">
	.st0{fill:#FFFFFF;}
</style>
<g id="XMLID_34_">
	<path id="XMLID_38_" class="st0" d="M137.6,27.1v14.6h28.3v12.6h-28.3v23.2h-16v-63h46.7v12.6H137.6z"/>
	<path id="XMLID_40_" class="st0" d="M234.4,51.1c0,16.6-11.1,27.2-28.7,27.2c-17.7,0-29.1-10.5-29.1-27.2V14.5h16v36.5
		c0,8.5,5.5,13.8,13.1,13.8c7.6,0,12.7-5.2,12.7-13.8V14.5h15.9V51.1z"/>
	<path id="XMLID_42_" class="st0" d="M291.7,77.5l-29-38.8v38.8h-15v-63h14.1l29.1,38.9V14.5h14.9v63H291.7z"/>
	<path id="XMLID_44_" class="st0" d="M344.7,52.8l-8.4,9.3v15.5h-16v-63h16v27.3l24.1-27.3h18.5l-23.4,26.1l24.9,36.9h-19.2
		L344.7,52.8z"/>
	<path id="XMLID_46_" class="st0" d="M421.8,77.5h-15.9V57.6l-23.3-43.1h16L413.8,42l14.8-27.4h16l-22.9,42.7V77.5z"/>
	<path id="XMLID_48_" class="st0" d="M504.1,27.4v50.1h-16V27.4h-18.8v-13h53.8v13H504.1z"/>
	<path id="XMLID_50_" class="st0" d="M592.5,45.9c0,18.4-14.6,32.3-34.1,32.3c-19.4,0-34-13.9-34-32.3c0-18.4,14.6-31.9,34-31.9
		C577.9,14,592.5,27.7,592.5,45.9z M540.8,46c0,10.6,8.2,18.8,17.8,18.8c9.7,0,17.5-8.2,17.5-18.8c0-10.6-7.7-18.6-17.5-18.6
		S540.8,35.4,540.8,46z"/>
	<path id="XMLID_53_" class="st0" d="M656.2,77.5L644.5,34l-11.9,43.6h-16.6l-20.6-63h17.1l12.3,46.3L637,14.5h15.7L665,60.9
		l12.2-46.3h16.4l-20.8,63H656.2z"/>
	<path id="XMLID_55_" class="st0" d="M745,77.5l-29-38.8v38.8h-15v-63h14.1l29.1,38.9V14.5h14.9v63H745z"/>
</g>
<circle id="XMLID_9_" class="st0" cx="41" cy="44.8" r="32.6"/>
<g id="XMLID_1_">
	<g id="XMLID_8_">
		<polygon id="XMLID_3_" class="st0" points="359.1,190.8 437.5,269.2 515.9,190.8 503.5,178.4 437.5,244.4 371.5,178.4 		"/>
		<path id="XMLID_5_" class="st0" d="M520.8,190.8l-83.3,83.3l-83.3-83.3l17.3-17.3l66,66l66-66L520.8,190.8z M437.5,264.2
			l73.4-73.4l-7.4-7.4l-66,66l-66-66l-7.4,7.4L437.5,264.2z"/>
	</g>
	<rect id="XMLID_2_" x="424" y="137.5" class="st0" width="27" height="105"/>
</g>
</svg>
