<?xml version="1.0" encoding="utf-8"?>
<!-- Generator: Adobe Illustrator 19.0.0, SVG Export Plug-In . SVG Version: 6.00 Build 0)  -->
<svg version="1.1" id="Calque_1" xmlns="http://www.w3.org/2000/svg" xmlns:xlink="http://www.w3.org/1999/xlink" x="0px" y="0px"
	 viewBox="1649.9 -3183.4 3126 3817.1" style="enable-background:new 1649.9 -3183.4 3126 3817.1;" xml:space="preserve">
<style type="text/css">
	.st0{fill:#FFFFFF;}
</style>
<circle id="XMLID_9_" class="st0" cx="1778" cy="496.7" r="32.6"/>
<g id="XMLID_85_">
	<polygon id="XMLID_14_" class="st0" points="1818.9,-3179.4 1818.9,-3014.4 1653.9,-3014.4 1653.9,-2984.4 1848.9,-2984.4 
		1848.9,-3179.4 	"/>
	<path id="XMLID_82_" class="st0" d="M1854.9-2978.4h-207v-42h165v-165h42V-2978.4z M1824.9-3008.4h-165v18h183v-183h-18V-3008.4z"
		/>
</g>
<g id="XMLID_81_">
	<polygon id="XMLID_3_" class="st0" points="4769.9,627.7 4769.9,-3177.4 1909.9,-3177.4 1909.9,-3147.4 4739.9,-3147.4 
		4739.9,597.7 1685.9,597.7 1685.9,-2923.4 1655.9,-2923.4 1655.9,627.7 	"/>
	<path id="XMLID_5_" class="st0" d="M4775.9,633.7h-3126v-3563.1h42V591.7h3042v-3733.1h-2830v-42h2872V633.7L4775.9,633.7z
		 M1915.9-3171.4v18h2830V603.7h-3066v-3521.1h-18V621.7h3102v-3793.1H1915.9L1915.9-3171.4z"/>
</g>
<rect id="XMLID_4_" x="1726.5" y="-3175" transform="matrix(0.7071 -0.7071 0.7071 0.7071 2691.7356 334.7703)" class="st0" width="47" height="186.3"/>
<g>
	<path class="st0" d="M3461,483.6h-0.9h-24v35.1h-31.7V394h55.7c32.9,0,51.8,15.7,51.8,43.4c0,19-8,32.8-22.6,40l26.2,41.1h-36
		L3461,483.6z M3460.1,458.6c13.7,0,21.7-6.9,21.7-20.1c0-13-8-19.6-21.7-19.6h-24v39.7H3460.1z"/>
	<path class="st0" d="M3564.9,418.9v24.7h59.5v24.9h-59.5v25.1h67.8v24.9h-99.5V394h97.5v24.9H3564.9z"/>
	<path class="st0" d="M3761.8,414l-18.3,21.7c-8.2-10-20.3-16.2-31.3-16.2c-19.8,0-34.7,15.7-34.7,36.1c0,20.8,15,36.7,34.7,36.7
		c10.5,0,22.6-5.7,31.3-14.6l18.5,19.6c-13.3,13.7-33.1,22.8-51.4,22.8c-37.6,0-65.5-27.6-65.5-64.1c0-36,28.7-63,66.6-63
		C3730.1,393,3749.4,401.1,3761.8,414z"/>
	<path class="st0" d="M3834.1,419.5v99.1h-31.7v-99.1h-37.2v-25.6h106.4v25.6H3834.1z"/>
	<path class="st0" d="M4005.3,456.1c0,36.3-28.8,63.9-67.5,63.9c-38.4,0-67.3-27.4-67.3-63.9c0-36.3,28.8-63.2,67.3-63.2
		C3976.5,393,4005.3,420,4005.3,456.1z M3903,456.3c0,21,16.2,37.2,35.2,37.2c19.2,0,34.5-16.2,34.5-37.2s-15.3-36.8-34.5-36.8
		C3919,419.5,3903,435.3,3903,456.3z"/>
	<path class="st0" d="M4099.1,518.6L4050.7,394h33.8l31.9,91.7l31.9-91.7h32.6l-48.9,124.6H4099.1z"/>
	<path class="st0" d="M4224.8,418.9v24.7h59.5v24.9h-59.5v25.1h67.8v24.9h-99.5V394h97.5v24.9H4224.8z"/>
	<path class="st0" d="M4369.7,483.6h-0.9h-24v35.1h-31.7V394h55.7c32.9,0,51.8,15.7,51.8,43.4c0,19-8,32.8-22.6,40l26.2,41.1h-36
		L4369.7,483.6z M4368.8,458.6c13.7,0,21.7-6.9,21.7-20.1c0-13-8-19.6-21.7-19.6h-24v39.7H4368.8z"/>
	<path class="st0" d="M4539,406.5l-11.9,24.7c-13.2-7.7-29.7-13-39.9-13c-8.2,0-13.7,3-13.7,9.1c0,21.5,65.9,9.3,65.9,54.3
		c0,24.9-22.1,38.1-49.8,38.1c-20.8,0-42.2-7.8-57-19.9l12.3-24.4c12.8,11.2,32,18.7,45,18.7c10,0,16.2-3.7,16.2-10.9
		c0-22.1-65.9-8.9-65.9-53c0-23,19.8-37.6,49.7-37.6C4507.8,392.6,4526.1,398.1,4539,406.5z"/>
	<path class="st0" d="M4683.1,456.1c0,36.3-28.8,63.9-67.5,63.9c-38.4,0-67.3-27.4-67.3-63.9c0-36.3,28.8-63.2,67.3-63.2
		C4654.3,393,4683.1,420,4683.1,456.1z M4580.8,456.3c0,21,16.2,37.2,35.2,37.2c19.2,0,34.5-16.2,34.5-37.2s-15.3-36.8-34.5-36.8
		C4596.8,419.5,4580.8,435.3,4580.8,456.3z"/>
</g>
</svg>
