<?xml version="1.0" encoding="utf-8"?>
<!-- Generator: Adobe Illustrator 19.0.0, SVG Export Plug-In . SVG Version: 6.00 Build 0)  -->
<svg version="1.1" id="Calque_1" xmlns="http://www.w3.org/2000/svg" xmlns:xlink="http://www.w3.org/1999/xlink" x="0px" y="0px"
	 viewBox="0 0 2205.8 187.4" style="enable-background:new 0 0 2205.8 187.4;" xml:space="preserve">
<style type="text/css">
	.st0{fill:#FFFFFF;}
</style>
<g id="XMLID_2_">
	<path id="XMLID_4_" class="st0" d="M27.4,56.1v108.6h21.4v22.8H0V33.3h48.8v22.8H27.4z"/>
	<path id="XMLID_6_" class="st0" d="M137.4,65.7v24.7h59.5v24.9h-59.5v25.1h67.8v24.9h-99.5V40.8h97.5v24.9H137.4z"/>
	<path id="XMLID_8_" class="st0" d="M322.7,53.2L310.8,78c-13.2-7.7-29.7-13-39.9-13c-8.2,0-13.7,3-13.7,9.1
		c0,21.5,65.9,9.3,65.9,54.3c0,24.9-22.1,38.1-49.8,38.1c-20.8,0-42.2-7.8-57-19.9l12.3-24.4c12.8,11.2,32,18.7,45,18.7
		c10,0,16.2-3.7,16.2-10.9c0-22.1-65.9-8.9-65.9-53c0-23,19.8-37.6,49.7-37.6C291.6,39.3,309.9,44.9,322.7,53.2z"/>
	<path id="XMLID_10_" class="st0" d="M394.6,40.8c31.9,0,50.2,15.7,50.2,43.4c0,29.2-18.3,46.1-50.2,46.1H372v35.1h-31.7V40.8H394.6
		z M372,105.4h21c13.9,0,21.9-6.9,21.9-20.1c0-13-8-19.6-21.9-19.6h-21V105.4z"/>
	<path id="XMLID_13_" class="st0" d="M480.4,142.4l-9.1,23h-32.6l53.8-124.6h32.6l52.5,124.6h-33.8l-8.9-23H480.4z M507.8,72.3
		l-18.2,46.1h36L507.8,72.3z"/>
	<path id="XMLID_16_" class="st0" d="M694.4,60.7L676,82.4c-8.2-10-20.3-16.2-31.3-16.2c-19.8,0-34.7,15.7-34.7,36.1
		c0,20.8,15,36.7,34.7,36.7c10.5,0,22.6-5.7,31.3-14.6l18.5,19.6c-13.3,13.7-33.1,22.8-51.4,22.8c-37.6,0-65.5-27.6-65.5-64.1
		c0-36,28.7-63,66.6-63C662.7,39.7,681.9,47.9,694.4,60.7z"/>
	<path id="XMLID_18_" class="st0" d="M740.7,65.7v24.7h59.5v24.9h-59.5v25.1h67.8v24.9H709V40.8h97.5v24.9H740.7z"/>
	<path id="XMLID_20_" class="st0" d="M923.8,40.8C963,40.8,990,66,990,103.1c0,36.8-27.4,62.3-67.5,62.3h-52.3V40.8H923.8z
		 M901.9,140.1h22.6c19.4,0,33.3-15,33.3-36.8c0-22.1-14.6-37.2-34.7-37.2h-21.2V140.1z"/>
	<path id="XMLID_23_" class="st0" d="M1038.4,65.7v24.7h59.5v24.9h-59.5v25.1h67.8v24.9h-99.5V40.8h97.5v24.9H1038.4z"/>
	<path id="XMLID_25_" class="st0" d="M1276.6,60.7l-18.3,21.7c-8.2-10-20.3-16.2-31.3-16.2c-19.8,0-34.7,15.7-34.7,36.1
		c0,20.8,15,36.7,34.7,36.7c10.5,0,22.6-5.7,31.3-14.6l18.5,19.6c-13.3,13.7-33.1,22.8-51.4,22.8c-37.6,0-65.5-27.6-65.5-64.1
		c0-36,28.7-63,66.6-63C1244.9,39.7,1264.1,47.9,1276.6,60.7z"/>
	<path id="XMLID_27_" class="st0" d="M1347.8,130.3h-0.9h-24v35.1h-31.7V40.8h55.7c32.9,0,51.8,15.7,51.8,43.4c0,19-8,32.8-22.6,40
		l26.2,41.1h-36L1347.8,130.3z M1346.9,105.4c13.7,0,21.7-6.9,21.7-20.1c0-13-8-19.6-21.7-19.6h-24v39.7H1346.9z"/>
	<path id="XMLID_30_" class="st0" d="M1451.8,65.7v24.7h59.5v24.9h-59.5v25.1h67.8v24.9h-99.5V40.8h97.5v24.9H1451.8z M1477.4,29.9
		h-23.5L1472.8,0l27.8,9.8L1477.4,29.9z"/>
	<path id="XMLID_33_" class="st0" d="M1568.3,142.4l-9.1,23h-32.6l53.8-124.6h32.6l52.5,124.6h-33.8l-8.9-23H1568.3z M1595.8,72.3
		l-18.2,46.1h36L1595.8,72.3z"/>
	<path id="XMLID_36_" class="st0" d="M1721.4,66.2v99.1h-31.7V66.2h-37.2V40.6H1759v25.6H1721.4z"/>
	<path id="XMLID_38_" class="st0" d="M1772.5,165.4V40.8h31.7v124.6H1772.5z"/>
	<path id="XMLID_40_" class="st0" d="M1955.7,102.9c0,36.3-28.8,63.9-67.5,63.9c-38.4,0-67.3-27.4-67.3-63.9
		c0-36.3,28.8-63.2,67.3-63.2C1926.8,39.7,1955.7,66.7,1955.7,102.9z M1853.3,103.1c0,21,16.2,37.2,35.2,37.2
		c19.2,0,34.5-16.2,34.5-37.2s-15.3-36.8-34.5-36.8C1869.3,66.2,1853.3,82.1,1853.3,103.1z"/>
	<path id="XMLID_43_" class="st0" d="M2059.4,165.4l-57.3-76.7v76.7h-29.7V40.8h27.9l57.5,76.9V40.8h29.5v124.6H2059.4z"/>
	<path id="XMLID_45_" class="st0" d="M2205.8,187.4H2157v-22.8h21.4V56.1H2157V33.3h48.8V187.4z"/>
</g>
</svg>
