<?xml version="1.0" encoding="utf-8"?>
<!-- Generator: Adobe Illustrator 19.0.0, SVG Export Plug-In . SVG Version: 6.00 Build 0)  -->
<svg version="1.1" id="Calque_1" xmlns="http://www.w3.org/2000/svg" xmlns:xlink="http://www.w3.org/1999/xlink" x="0px" y="0px"
	 viewBox="0 0 1362.8 154.1" style="enable-background:new 0 0 1362.8 154.1;" xml:space="preserve">
<style type="text/css">
	.st0{fill:#FFFFFF;}
</style>
<g id="XMLID_2_">
	<path id="XMLID_3_" class="st0" d="M27.4,22.8v108.6h21.4v22.8H0V0h48.8v22.8H27.4z"/>
	<path id="XMLID_5_" class="st0" d="M202.7,19.9l-11.9,24.7c-13.2-7.7-29.7-13-39.9-13c-8.2,0-13.7,3-13.7,9.1
		c0,21.5,65.9,9.3,65.9,54.3c0,24.9-22.1,38.1-49.8,38.1c-20.8,0-42.2-7.8-57-19.9l12.3-24.4c12.8,11.2,32,18.7,45,18.7
		c10,0,16.2-3.7,16.2-10.9c0-22.1-65.9-8.9-65.9-53c0-23,19.8-37.6,49.7-37.6C171.6,6.1,189.9,11.6,202.7,19.9z"/>
	<path id="XMLID_7_" class="st0" d="M303.7,132.1V83.7H252v48.4h-31.7V7.5H252v51.3h51.6V7.5h31.7v124.6H303.7z"/>
	<path id="XMLID_9_" class="st0" d="M486.8,69.6c0,36.3-28.8,63.9-67.5,63.9c-38.4,0-67.3-27.4-67.3-63.9
		c0-36.3,28.8-63.2,67.3-63.2C458,6.4,486.8,33.5,486.8,69.6z M384.5,69.8c0,21,16.2,37.2,35.2,37.2c19.2,0,34.5-16.2,34.5-37.2
		s-15.3-36.8-34.5-36.8C400.5,32.9,384.5,48.8,384.5,69.8z"/>
	<path id="XMLID_12_" class="st0" d="M609.3,132.1l-23.1-86.1l-23.5,86.1h-32.8L489.1,7.5H523l24.4,91.7l23.9-91.7h31l24.4,91.7
		l24-91.7H683l-41.1,124.6H609.3z"/>
	<path id="XMLID_14_" class="st0" d="M750.8,97h-0.9h-24v35.1h-31.7V7.5h55.7c32.9,0,51.8,15.7,51.8,43.4c0,19-8,32.8-22.6,40
		l26.2,41.1h-36L750.8,97z M749.9,72.1c13.7,0,21.7-6.9,21.7-20.1c0-13-8-19.6-21.7-19.6h-24v39.7H749.9z"/>
	<path id="XMLID_17_" class="st0" d="M949.6,69.6c0,36.3-28.8,63.9-67.5,63.9c-38.4,0-67.3-27.4-67.3-63.9
		c0-36.3,28.8-63.2,67.3-63.2C920.8,6.4,949.6,33.5,949.6,69.6z M847.3,69.8c0,21,16.2,37.2,35.2,37.2c19.2,0,34.5-16.2,34.5-37.2
		s-15.3-36.8-34.5-36.8C863.3,32.9,847.3,48.8,847.3,69.8z"/>
	<path id="XMLID_20_" class="st0" d="M1090.6,69.6c0,36.3-28.8,63.9-67.5,63.9c-38.4,0-67.3-27.4-67.3-63.9
		c0-36.3,28.8-63.2,67.3-63.2C1061.8,6.4,1090.6,33.5,1090.6,69.6z M988.3,69.8c0,21,16.2,37.2,35.2,37.2
		c19.2,0,34.5-16.2,34.5-37.2s-15.3-36.8-34.5-36.8C1004.3,32.9,988.3,48.8,988.3,69.8z"/>
	<path id="XMLID_23_" class="st0" d="M1216.3,132.1l-0.2-81l-29.9,68.5h-20.6l-29.9-68.5v81h-28.3V7.3h34.7l33.8,74.2l33.8-74.2
		h34.5v124.8H1216.3z"/>
	<path id="XMLID_25_" class="st0" d="M1362.8,154.1H1314v-22.8h21.4V22.8H1314V0h48.8V154.1z"/>
</g>
</svg>
