<?xml version="1.0" encoding="utf-8"?>
<!-- Generator: Adobe Illustrator 19.0.0, SVG Export Plug-In . SVG Version: 6.00 Build 0)  -->
<svg version="1.1" id="Calque_1" xmlns="http://www.w3.org/2000/svg" xmlns:xlink="http://www.w3.org/1999/xlink" x="0px" y="0px"
	 viewBox="0 0 1780.2 154.1" style="enable-background:new 0 0 1780.2 154.1;" xml:space="preserve">
<style type="text/css">
	.st0{fill:#FFFFFF;}
</style>
<g id="XMLID_2_">
	<path id="XMLID_4_" class="st0" d="M27.4,22.8v108.6h21.4v22.8H0V0h48.8v22.8H27.4z"/>
	<path id="XMLID_6_" class="st0" d="M137.4,32.4v28.8h55.9v24.9h-55.9v45.9h-31.7V7.5h92.4v24.9H137.4z"/>
	<path id="XMLID_8_" class="st0" d="M235.5,109.1l-9.1,23h-32.6L247.6,7.5h32.6l52.5,124.6h-33.8l-8.9-23H235.5z M262.9,39
		l-18.2,46.1h36L262.9,39z"/>
	<path id="XMLID_11_" class="st0" d="M403.2,7.5c27.9,0,45.7,12.1,45.7,31.1c0,13.2-8.2,23.7-21.4,27.4c15.7,3,25.6,15.3,25.6,31.5
		c0,21.2-18.5,34.5-47.9,34.5h-61.1V7.5H403.2z M375.8,57.3h25.6c9.3,0,15.1-5,15.1-13s-5.9-12.6-15.1-12.6h-25.6V57.3z
		 M375.8,107.7h25.6c11.7,0,19-5.2,19-14.1c0-8.4-7.3-13.5-19-13.5h-25.6V107.7z"/>
	<path id="XMLID_15_" class="st0" d="M587.9,120.3c-10.3,8.5-22.6,13.2-35.4,13.2c-24.4,0-42.4-15.1-42.4-36.3
		c0-16.7,11.6-26,24.7-33.3c-7.5-10.7-10.5-19-10.5-27.9c0-18.2,13.9-29.9,35.6-29.9c21,0,35.6,11.6,35.6,27.9
		c0,17.4-14.4,26.5-29.4,34.2C571.5,74,578,80.8,586,88.6c3.4-5.9,6.2-12.6,8.4-19.9l19.6,13.9c-3,8.2-6.9,15.7-11.4,22.1l18.5,17.6
		l-15.5,15.1L587.9,120.3z M572.3,105c-10.3-10.3-18.9-18.9-25.5-26.3c-6.8,4.5-11.6,9.4-11.6,16.4c0,10.1,8,16.9,18.5,16.9
		C560.2,112,566.6,109.5,572.3,105z M554.8,53.6c9.4-5.2,16.7-10.9,16.7-19.4c0-6.4-4.4-10.9-11.2-10.9c-7.5,0-11.9,5.3-11.9,12.6
		C548.4,41.1,550.4,46.8,554.8,53.6z"/>
	<path id="XMLID_19_" class="st0" d="M733.7,32.9v99.1H702V32.9h-37.2V7.3h106.4v25.6H733.7z"/>
	<path id="XMLID_21_" class="st0" d="M816.5,32.4v24.7h59.5v24.9h-59.5v25.1h67.8v24.9h-99.5V7.5h97.5v24.9H816.5z"/>
	<path id="XMLID_23_" class="st0" d="M1013.3,27.4L995,49.1c-8.2-10-20.3-16.2-31.3-16.2c-19.8,0-34.7,15.7-34.7,36.1
		c0,20.8,15,36.7,34.7,36.7c10.5,0,22.6-5.7,31.3-14.6l18.5,19.6c-13.3,13.7-33.1,22.8-51.4,22.8c-37.6,0-65.5-27.6-65.5-64.1
		c0-36,28.7-63,66.6-63C981.7,6.4,1000.9,14.6,1013.3,27.4z"/>
	<path id="XMLID_25_" class="st0" d="M1111.2,132.1V83.7h-51.6v48.4h-31.7V7.5h31.7v51.3h51.6V7.5h31.7v124.6H1111.2z"/>
	<path id="XMLID_27_" class="st0" d="M1264.9,19.9l-11.9,24.7c-13.2-7.7-29.7-13-39.9-13c-8.2,0-13.7,3-13.7,9.1
		c0,21.5,65.9,9.3,65.9,54.3c0,24.9-22.1,38.1-49.8,38.1c-20.8,0-42.2-7.8-57-19.9l12.3-24.4c12.8,11.2,32,18.7,45,18.7
		c10,0,16.2-3.7,16.2-10.9c0-22.1-65.9-8.9-65.9-53c0-23,19.8-37.6,49.7-37.6C1233.7,6.1,1252,11.6,1264.9,19.9z"/>
	<path id="XMLID_29_" class="st0" d="M1365.8,132.1V83.7h-51.6v48.4h-31.7V7.5h31.7v51.3h51.6V7.5h31.7v124.6H1365.8z"/>
	<path id="XMLID_31_" class="st0" d="M1548.9,69.6c0,36.3-28.8,63.9-67.5,63.9c-38.4,0-67.3-27.4-67.3-63.9
		c0-36.3,28.8-63.2,67.3-63.2C1520.1,6.4,1548.9,33.5,1548.9,69.6z M1446.6,69.8c0,21,16.2,37.2,35.2,37.2
		c19.2,0,34.5-16.2,34.5-37.2s-15.3-36.8-34.5-36.8C1462.6,32.9,1446.6,48.8,1446.6,69.8z"/>
	<path id="XMLID_34_" class="st0" d="M1620,7.5c31.9,0,50.2,15.7,50.2,43.4c0,29.2-18.3,46.1-50.2,46.1h-22.6v35.1h-31.7V7.5H1620z
		 M1597.4,72.1h21c13.9,0,21.9-6.9,21.9-20.1c0-13-8-19.6-21.9-19.6h-21V72.1z"/>
	<path id="XMLID_37_" class="st0" d="M1780.2,154.1h-48.8v-22.8h21.4V22.8h-21.4V0h48.8V154.1z"/>
</g>
</svg>
