<?xml version="1.0" encoding="utf-8"?>
<!-- Generator: Adobe Illustrator 19.0.0, SVG Export Plug-In . SVG Version: 6.00 Build 0)  -->
<svg version="1.1" id="Calque_1" xmlns="http://www.w3.org/2000/svg" xmlns:xlink="http://www.w3.org/1999/xlink" x="0px" y="0px"
	 viewBox="0 0 497.7 497.7" style="enable-background:new 0 0 497.7 497.7;" xml:space="preserve">
<style type="text/css">
	.st0{fill:#1D1D1B;}
	.st1{fill:#FFFFFF;}
</style>
<circle class="st0" cx="248.9" cy="248.9" r="248.9"/>
<g>
	<g>
		<polygon class="st1" points="216.4,93.4 151.8,93.4 151.8,253.4 183.9,253.4 183.9,285.5 184.1,285.5 184.1,285.7 248.3,285.7 
			248.3,253.4 216.4,253.4 		"/>
		<rect x="281.3" y="93.4" class="st1" width="64.6" height="192.3"/>
	</g>
</g>
<g>
	<g>
		<polygon class="st1" points="113.6,367.1 113.6,342.1 103.5,342.1 103.5,367.1 108.5,367.1 108.5,372.2 108.5,372.2 108.5,372.2 
			118.6,372.2 118.6,367.1 		"/>
		<rect x="123.8" y="342.1" class="st1" width="10.1" height="30.1"/>
	</g>
	<polygon class="st1" points="195.9,342.1 195.9,347.1 201,347.1 201,367.1 190.9,367.1 190.9,332 180.7,332 180.7,372.2 
		206.1,372.2 206.1,367.1 211.1,367.1 211.1,342.1 	"/>
	<polygon class="st1" points="311.2,367.1 311.2,332 301,332 301,372.2 311.2,372.2 326.4,372.2 326.4,367.1 	"/>
	<polygon class="st1" points="225.3,342 225.3,342 225.3,347 220.2,347 220.2,372.1 230.4,372.1 230.4,372.1 235.4,372.1 235.4,367 
		230.4,367 230.4,347 240.5,347 240.5,372.1 250.7,372.1 250.7,342 	"/>
	<polygon class="st1" points="338.4,332 338.3,337 333.3,337 333.3,372.2 343.4,372.2 343.4,357.1 348.5,357.1 348.5,352.1 
		343.4,352.1 343.4,337 343.4,337 343.4,337 353.5,337 353.5,372.2 363.7,372.2 363.7,332 	"/>
	<path class="st1" d="M404.1,352.1v-15.2H399V332l0,0h-25.3v40.2H399v-5.1h5.1V357H399v-4.9H404.1z M383.9,367.1V337h10.1v15.1h-5
		v5.1h5v10H383.9z"/>
	<polygon class="st1" points="286,347 286,347 286,347 286,342 286,342 286,342 260.7,342 260.7,372.1 270.8,372.1 270.8,347 
		280.9,347 280.9,347 280.9,372.1 291.1,372.1 291.1,347 	"/>
	<g>
		<polygon class="st1" points="154.5,347 154.5,342 144.3,342 144.3,372.1 154.5,372.1 154.5,352.1 159.5,352.1 159.5,347 		"/>
		<polygon class="st1" points="159.5,342 159.5,347 164.6,347 164.6,352.1 174.7,352.1 174.7,342 		"/>
	</g>
</g>
</svg>
